<?xml version="1.0" standalone="no"?>
<!DOCTYPE svg PUBLIC "-//W3C//DTD SVG 20010904//EN"
 "http://www.w3.org/TR/2001/REC-SVG-20010904/DTD/svg10.dtd">
<svg version="1.0" xmlns="http://www.w3.org/2000/svg"
 width="666.000000pt" height="666.000000pt" viewBox="0 0 666.000000 666.000000"
 preserveAspectRatio="xMidYMid meet">
<metadata>
Created by potrace 1.11, written by Peter Selinger 2001-2013
</metadata>
<g transform="translate(0.000000,666.000000) scale(0.100000,-0.100000)"
fill="#000000" stroke="none">
<path d="M3475 6193 c-370 -32 -747 -165 -1064 -374 l-114 -75 -61 9 c-115 17
-400 11 -529 -12 -270 -48 -497 -137 -718 -283 -82 -54 -98 -74 -53 -65 14 2
22 1 17 -2 -4 -4 -30 -25 -58 -46 -27 -21 -98 -86 -158 -144 -92 -90 -107
-101 -107 -80 0 23 -2 22 -35 -16 -96 -111 -212 -301 -279 -459 -93 -218 -135
-412 -143 -661 -14 -441 108 -823 375 -1177 36 -49 70 -88 75 -88 5 0 58 -47
117 -104 59 -57 135 -123 169 -147 33 -24 61 -48 61 -53 0 -16 118 -89 235
-146 130 -63 279 -114 429 -147 110 -24 144 -26 372 -29 l252 -2 85 -64 c277
-203 634 -347 1007 -405 140 -21 489 -24 625 -5 424 60 823 231 1140 487 128
104 197 170 345 335 192 213 293 369 379 586 72 183 101 320 126 607 35 410 6
654 -126 1067 -57 178 -169 381 -314 570 -19 25 -50 65 -67 90 -61 84 -273
285 -400 380 -409 306 -890 464 -1393 458 -82 -1 -168 -3 -190 -5z"/>
<path d="M420 1351 c-43 -14 -84 -38 -106 -63 -101 -110 -71 -285 61 -351 17
-8 82 -31 146 -51 141 -43 159 -57 165 -116 6 -54 -9 -86 -55 -117 -95 -64
-261 21 -261 134 l0 43 -55 0 -55 0 0 -150 0 -150 55 0 c52 0 55 1 55 24 l0
25 58 -30 c53 -28 63 -30 143 -27 75 3 92 7 135 33 30 19 60 49 79 79 27 44
30 58 30 125 0 59 -5 85 -22 118 -43 79 -93 106 -313 167 -70 19 -104 53 -104
103 0 85 123 125 226 72 45 -23 68 -54 68 -91 0 -27 2 -28 55 -28 l55 0 0 125
0 125 -55 0 c-48 0 -55 -2 -55 -20 0 -25 -1 -25 -53 1 -45 24 -153 35 -197 20z"/>
<path d="M2826 1339 c-50 -39 -22 -122 42 -122 69 0 99 80 46 122 -15 12 -34
21 -44 21 -10 0 -29 -9 -44 -21z"/>
<path d="M3394 1350 c-141 -28 -260 -147 -294 -292 -5 -24 -10 -80 -10 -126 0
-175 82 -312 230 -381 50 -24 66 -26 180 -26 114 0 130 2 182 27 32 15 80 48
108 74 46 43 100 133 100 168 0 8 -24 28 -52 45 l-53 30 -26 -58 c-50 -109
-141 -171 -253 -171 -77 0 -124 18 -181 71 -65 60 -90 124 -89 234 0 103 20
157 80 219 57 59 88 71 184 71 76 0 91 -3 140 -31 37 -20 65 -46 85 -77 30
-46 30 -46 88 -46 l57 -1 0 135 0 135 -55 0 -55 0 0 -34 0 -35 -57 30 c-90 45
-203 60 -309 39z"/>
<path d="M3967 1343 c-4 -3 -7 -28 -7 -55 l0 -48 50 0 50 0 0 -299 0 -300 -47
-3 -48 -3 -3 -52 -3 -53 155 0 156 0 0 55 0 55 -45 0 -45 0 0 355 0 355 -103
0 c-57 0 -107 -3 -110 -7z"/>
<path d="M1127 1110 c-89 -23 -168 -84 -208 -162 -27 -53 -35 -149 -19 -217
43 -180 270 -272 458 -186 56 26 132 89 132 110 0 6 -21 21 -46 34 l-47 22
-31 -30 c-111 -107 -287 -72 -334 67 l-11 32 240 0 239 0 -4 23 c-3 12 -7 42
-11 66 -8 60 -51 136 -96 172 -77 61 -182 88 -262 69z m160 -121 c28 -18 83
-92 83 -112 0 -4 -76 -7 -170 -7 -111 0 -170 4 -170 10 0 6 9 28 19 49 44 85
153 113 238 60z"/>
<path d="M4567 1110 c-103 -26 -195 -111 -223 -206 -32 -112 2 -245 81 -311
62 -53 133 -78 220 -78 110 0 174 25 245 93 l55 54 -54 24 -55 24 -30 -29
c-94 -91 -255 -79 -313 24 -44 78 -53 75 212 75 129 0 235 4 235 8 0 5 -5 35
-11 67 -14 75 -49 145 -91 180 -73 62 -190 95 -271 75z m160 -121 c28 -18 83
-92 83 -112 0 -4 -76 -7 -170 -7 -118 0 -170 3 -170 11 0 22 44 89 69 105 58
39 129 39 188 3z"/>
<path d="M5213 1110 c-24 -5 -59 -16 -78 -26 -37 -17 -108 -91 -100 -104 3 -5
27 -13 55 -20 49 -12 51 -11 85 19 31 26 44 31 90 31 43 0 59 -5 84 -26 27
-23 31 -32 31 -78 l0 -53 -52 18 c-99 34 -177 20 -246 -45 -41 -39 -46 -48
-50 -99 -6 -71 1 -97 35 -138 62 -73 172 -90 267 -40 l56 30 0 -25 c0 -24 0
-24 106 -24 l105 0 -3 53 -3 52 -47 3 -47 3 -3 184 c-3 166 -5 186 -24 212
-43 59 -164 93 -261 73z m122 -342 c41 -20 45 -25 45 -60 0 -33 -4 -40 -42
-61 -58 -33 -102 -40 -144 -22 -59 24 -71 90 -25 136 37 37 99 39 166 7z"/>
<path d="M1875 1095 c-22 -8 -55 -31 -72 -51 l-33 -37 0 46 0 47 -105 0 -105
0 0 -55 0 -55 55 0 55 0 0 -175 0 -175 -55 0 -55 0 0 -55 0 -55 175 0 175 0 0
55 0 55 -61 0 -61 0 4 123 c5 178 30 211 163 224 l65 6 0 58 0 59 -52 0 c-29
-1 -71 -7 -93 -15z"/>
<path d="M5977 1100 c-16 -5 -51 -20 -78 -34 l-49 -26 0 30 0 30 -110 0 -110
0 0 -55 0 -55 50 0 50 0 0 -174 0 -175 -47 -3 -48 -3 -3 -52 -3 -53 160 0 161
0 0 55 0 55 -50 0 -51 0 3 147 3 147 63 33 c73 38 100 41 133 14 24 -19 24
-22 27 -235 l4 -216 104 0 104 0 0 55 0 55 -44 0 -43 0 -5 184 c-4 157 -7 188
-24 216 -35 60 -116 84 -197 60z"/>
<path d="M2040 1046 l0 -55 52 -3 52 -3 91 -232 90 -233 55 0 55 0 29 78 c16
42 56 148 89 235 l59 157 44 0 44 0 0 55 0 55 -140 0 -140 0 0 -54 0 -55 34
-3 34 -3 -52 -137 c-29 -76 -54 -140 -57 -142 -4 -4 -109 262 -109 277 0 4 14
7 30 7 30 0 30 1 30 55 l0 55 -145 0 -145 0 0 -54z"/>
<path d="M2730 1045 l0 -55 40 0 40 0 0 -175 0 -175 -40 0 -40 0 0 -55 0 -55
145 0 145 0 0 55 0 55 -40 0 -40 0 0 230 0 230 -105 0 -105 0 0 -55z"/>
</g>
</svg>
