<?xml version="1.0" standalone="no"?>
<!DOCTYPE svg PUBLIC "-//W3C//DTD SVG 20010904//EN"
 "http://www.w3.org/TR/2001/REC-SVG-20010904/DTD/svg10.dtd">
<svg version="1.0" xmlns="http://www.w3.org/2000/svg"
 width="1283.000000pt" height="1283.000000pt" viewBox="0 0 1283.000000 1283.000000"
 preserveAspectRatio="xMidYMid meet">
<metadata>
Created by potrace 1.14, written by Peter Selinger 2001-2017
</metadata>
<g transform="translate(0.000000,1283.000000) scale(0.100000,-0.100000)"
fill="#000000" stroke="none">
<path d="M8365 11668 c-2 -7 -6 -37 -10 -67 -3 -29 -10 -83 -15 -120 -5 -36
-12 -86 -15 -110 -3 -25 -7 -47 -10 -49 -2 -3 -22 14 -44 37 -51 54 -63 53
-19 -1 60 -74 66 -70 -91 -65 -185 7 -190 -6 -11 -29 147 -19 148 -19 109 -60
-39 -40 -35 -43 11 -9 19 14 37 25 41 25 4 0 5 -80 3 -177 -5 -174 -1 -217 10
-118 4 28 8 66 11 85 20 159 27 205 30 208 2 2 20 -15 41 -37 49 -55 57 -44
10 13 -20 24 -36 46 -36 48 0 4 81 2 278 -5 138 -6 116 3 -78 29 -63 8 -124
17 -135 19 -11 2 -29 4 -40 4 -16 1 -11 9 25 47 l45 47 -45 -30 c-25 -16 -50
-33 -56 -36 -11 -6 -11 53 -1 301 3 60 1 75 -8 50z"/>
<path d="M7951 11296 c12 -10 59 -15 59 -6 0 5 -14 10 -32 10 -17 0 -29 -2
-27 -4z"/>
<path d="M9386 11213 c-2 -10 -7 -36 -10 -58 -12 -92 -15 -112 -21 -160 -7
-55 -8 -63 -25 -180 -17 -118 -13 -116 -85 -45 -36 36 -65 61 -65 56 0 -5 25
-39 55 -77 30 -37 55 -70 55 -73 0 -7 -462 4 -472 10 -5 3 -8 1 -8 -4 0 -5 26
-13 58 -17 73 -8 156 -20 212 -30 33 -6 98 -15 145 -21 28 -3 52 -8 54 -10 3
-3 -16 -24 -42 -48 -26 -23 -47 -46 -47 -50 0 -4 26 11 58 33 32 23 60 41 63
41 4 0 5 -46 3 -102 -10 -282 -11 -387 -4 -383 4 3 11 40 15 82 4 43 9 87 10
98 8 44 14 94 26 195 7 58 13 106 14 108 2 2 26 -22 55 -52 29 -31 57 -56 63
-56 9 0 -31 58 -60 88 -7 8 -18 22 -23 32 -11 20 18 21 435 6 108 -4 104 5
-10 19 -27 3 -57 8 -65 10 -14 4 -89 14 -150 20 -67 7 -195 27 -199 31 -3 3
20 30 50 61 58 60 53 61 -28 1 -29 -21 -55 -38 -58 -38 -7 0 3 435 10 498 4
35 -1 43 -9 15z"/>
<path d="M7376 10812 c-9 -14 -5 -1062 4 -1062 13 0 160 90 161 98 1 4 2 152
3 329 1 177 4 325 8 328 6 6 584 -331 619 -362 14 -12 16 -65 16 -483 0 -328
-4 -470 -11 -471 -17 -1 -177 -1 -218 0 l-36 1 0 416 c0 228 -2 418 -5 420 -3
3 -183 -100 -399 -229 -217 -130 -409 -244 -426 -254 -229 -134 -289 -170
-306 -184 -20 -16 -21 -27 -21 -273 0 -141 2 -256 6 -256 3 0 41 21 85 48 l79
47 5 163 5 164 95 58 c52 31 232 139 400 238 l305 182 3 -267 c1 -146 0 -268
-3 -271 -2 -3 -74 -5 -159 -5 -105 0 -156 -3 -158 -11 -2 -6 -3 -575 -3 -1264
l0 -1253 93 -60 92 -59 0 1230 c0 676 3 1230 8 1231 4 0 188 1 410 2 262 1
402 -1 403 -8 0 -5 2 -579 3 -1275 2 -696 4 -1365 5 -1487 l2 -222 127 -88
c70 -47 150 -102 177 -122 28 -19 96 -67 152 -105 57 -39 149 -103 207 -143
l104 -72 50 76 51 76 -47 33 c-26 18 -67 47 -92 64 -94 66 -526 362 -539 369
-12 7 -14 232 -13 1527 0 836 -1 1529 -4 1541 -4 21 -9 22 -112 21 -59 0 -115
0 -124 1 -15 1 -16 40 -17 484 0 265 0 500 0 522 -1 40 -2 41 -93 97 -111 66
-610 364 -653 388 -16 9 -73 43 -125 75 -52 31 -98 59 -102 61 -4 3 -9 1 -12
-4z"/>
<path d="M9009 10033 c0 -10 -2 -27 -4 -38 -3 -11 -6 -38 -9 -60 -3 -22 -10
-71 -15 -110 -17 -115 -19 -129 -20 -145 -1 -8 -22 6 -53 35 -39 38 -47 43
-33 20 18 -29 29 -43 53 -70 6 -7 12 -16 12 -19 0 -3 -80 -4 -177 -2 -98 2
-167 2 -153 0 87 -16 213 -35 260 -40 30 -3 57 -8 59 -10 3 -2 -11 -21 -30
-41 l-34 -36 33 19 c17 10 32 22 32 26 0 4 7 8 15 8 13 0 14 -24 9 -177 -5
-177 -2 -217 10 -113 4 30 9 66 11 80 2 14 7 50 11 80 4 30 8 64 10 75 1 11 3
31 3 45 1 23 3 22 41 -20 46 -51 64 -50 20 1 -16 19 -29 39 -30 45 0 10 149
10 313 1 95 -6 43 9 -95 28 -79 11 -146 20 -150 21 -5 1 -22 2 -40 3 l-32 1
44 46 45 47 -45 -30 c-25 -16 -50 -32 -56 -36 -8 -5 -10 16 -8 71 2 42 5 130
8 195 3 64 3 117 0 117 -2 0 -4 -8 -5 -17z"/>
<path d="M7040 8937 l-265 -153 -3 -97 c-1 -53 1 -97 5 -97 9 1 38 17 327 185
l206 120 0 98 c0 53 -1 97 -2 96 -2 0 -122 -69 -268 -152z"/>
<path d="M10585 8893 c-29 -5 -69 -42 -87 -78 -8 -16 -248 -730 -533 -1585
-618 -1860 -561 -1693 -588 -1705 -36 -16 -61 -66 -107 -209 -40 -125 -45
-136 -64 -129 -84 27 -163 -37 -460 -372 -252 -283 -302 -316 -412 -266 -65
30 -95 32 -159 16 -32 -9 -61 -18 -64 -20 -2 -3 4 -14 14 -25 18 -20 18 -20
-21 -14 -21 3 -42 8 -46 10 -9 6 -78 -28 -78 -38 0 -4 18 -15 40 -24 23 -9 39
-18 37 -20 -2 -3 -36 0 -75 6 -72 10 -72 10 -124 -24 -29 -19 -70 -47 -91 -64
l-37 -30 42 -15 c24 -9 57 -20 73 -26 l30 -9 -35 -2 c-19 -1 -62 -3 -95 -3
-33 -1 -66 -6 -74 -11 -22 -14 -61 -108 -61 -148 0 -41 3 -42 85 -54 42 -6 46
-8 26 -15 -12 -5 -37 -12 -54 -15 -17 -3 -33 -7 -35 -9 -7 -6 36 -89 58 -113
12 -13 35 -23 53 -24 18 -1 41 -3 52 -4 11 -1 27 -3 35 -3 8 -1 -7 -11 -34
-23 l-49 -22 58 -51 58 -52 71 18 c39 10 76 19 81 19 6 0 -9 -18 -32 -40 -49
-44 -51 -51 -24 -65 11 -6 46 -25 77 -43 64 -38 71 -38 172 10 73 34 212 133
212 151 0 5 3 8 6 4 15 -15 -110 -155 -200 -225 -16 -12 -27 -24 -25 -26 8 -6
144 -59 211 -81 83 -27 98 -22 198 76 l70 68 -26 -51 c-14 -27 -39 -69 -55
-91 -25 -35 -27 -42 -14 -50 18 -10 12 -8 175 -41 69 -14 134 -28 146 -31 18
-4 26 7 57 74 21 44 37 86 37 93 0 8 4 18 8 23 5 6 19 38 32 73 12 34 24 61
25 60 2 -2 -1 -26 -5 -53 -4 -28 -11 -75 -15 -105 -4 -30 -12 -83 -20 -117 -9
-46 -9 -63 -1 -64 6 -1 20 -3 31 -4 11 -1 52 -6 90 -10 39 -4 83 -9 100 -11
50 -6 185 -7 191 -2 2 3 0 25 -5 49 -18 78 -12 86 20 24 36 -69 52 -85 82 -80
12 2 62 6 112 10 49 3 91 8 93 10 2 2 -18 36 -46 77 -44 66 -152 254 -152 265
0 3 30 -32 66 -77 37 -45 104 -120 149 -167 93 -95 83 -92 212 -54 l55 16 -38
36 c-22 20 -57 55 -79 79 l-40 43 55 -32 c30 -18 84 -46 119 -63 l63 -31 54
29 c29 16 68 41 86 56 32 26 32 28 15 45 -10 10 -59 32 -110 50 -86 30 -89 32
-42 27 28 -2 65 -7 83 -10 30 -5 32 -3 32 26 0 29 -2 30 -44 30 -24 0 -68 5
-97 10 -65 12 -201 52 -196 57 2 2 75 -10 161 -27 87 -16 160 -30 163 -30 5 0
-2 88 -12 165 -6 40 -13 94 -14 107 -1 3 -9 9 -18 11 -17 4 -17 5 0 6 18 1 21
12 11 48 -4 13 -11 20 -16 17 -41 -26 -250 -46 -262 -25 -3 4 34 11 82 14 48
3 98 8 112 11 14 3 38 8 54 12 25 5 27 9 22 36 -3 17 -6 39 -6 50 0 17 -5 19
-26 14 -80 -21 -89 -18 -35 10 l53 28 -5 44 c-3 24 -10 49 -16 55 -13 13 -65
14 -106 2 l-30 -8 19 22 c11 11 17 23 15 25 -8 9 -110 46 -125 46 -9 0 -34
-14 -57 -32 -44 -36 -43 -39 -21 39 6 22 7 22 -148 63 -27 7 -48 14 -48 16 0
2 11 46 24 97 43 163 51 318 20 379 -19 39 -52 67 -76 68 -10 0 -18 3 -18 7 0
4 28 92 62 195 61 183 62 187 49 236 l-12 49 546 1639 c437 1312 545 1646 542
1676 -7 51 -39 93 -87 112 -40 16 -55 17 -95 9z m89 -84 c16 -13 26 -30 26
-47 0 -19 -933 -2846 -987 -2992 -3 -8 -30 -87 -59 -174 -48 -144 -52 -161
-39 -180 24 -33 19 -60 -47 -259 l-63 -189 -72 4 c-50 4 -81 11 -105 26 -33
22 -32 30 2 12 10 -5 36 -12 57 -15 21 -3 44 -8 51 -10 6 -2 12 0 12 5 0 4
-15 14 -34 20 -45 14 -123 74 -131 100 -6 18 82 303 103 337 6 9 20 6 57 -12
30 -16 65 -25 94 -25 l45 0 -52 26 c-29 14 -57 34 -62 44 -7 13 35 151 171
556 98 297 181 546 184 554 6 24 345 1043 352 1060 3 8 7 20 8 25 4 17 315
945 337 1008 19 51 24 58 42 52 12 -3 39 -9 61 -12 l40 -5 -42 30 c-54 40 -60
52 -38 69 27 19 58 16 89 -8z m-1569 -3748 c-6 -5 -39 -33 -75 -61 -36 -29
-89 -74 -117 -101 -29 -26 -53 -44 -53 -38 0 19 146 154 196 181 54 29 62 32
49 19z m196 -198 c-5 -10 -29 -56 -51 -102 -52 -105 -105 -193 -178 -294 -53
-74 -108 -135 -65 -72 62 91 273 441 273 453 0 8 21 32 27 32 2 0 -1 -8 -6
-17z m317 -96 c0 -94 -17 -174 -77 -357 -78 -238 -103 -452 -77 -656 4 -27 9
-69 11 -94 l5 -45 -21 50 c-75 173 -87 386 -35 624 12 54 51 159 97 260 31 67
79 216 83 258 5 44 5 43 10 43 2 0 4 -38 4 -83z m-757 -14 c-49 -49 -115 -124
-147 -168 -32 -44 -67 -92 -77 -105 -10 -14 -2 7 19 45 45 87 120 182 187 238
43 36 95 74 104 76 1 1 -38 -38 -86 -86z m175 -179 c-36 -104 -139 -278 -188
-320 -18 -15 -20 -16 -9 -1 7 9 21 30 30 45 94 165 133 234 152 274 27 56 35
57 15 2z m387 -141 c-19 -54 -36 -105 -38 -113 -2 -8 -8 -35 -14 -60 -18 -82
-30 -161 -37 -258 -9 -127 -17 -96 -11 43 6 137 26 242 70 356 25 66 55 129
61 129 1 0 -13 -44 -31 -97z m-568 -60 c-42 -100 -196 -346 -239 -382 -14 -12
-15 -10 -5 16 27 80 230 403 252 403 4 0 0 -17 -8 -37z m-381 -28 c-47 -62
-127 -125 -209 -166 -44 -22 -90 -41 -103 -44 -12 -2 -27 -7 -32 -10 -6 -3
-41 -8 -78 -10 -62 -4 -63 -3 -22 5 165 34 294 100 412 210 29 27 54 49 56 50
2 0 -9 -16 -24 -35z m-207 -8 c9 -10 -105 -19 -153 -12 -87 11 -66 20 42 19
58 -2 108 -5 111 -7z m1398 -265 c124 -28 173 -34 300 -34 83 0 102 -2 75 -9
-125 -31 -424 12 -480 70 -13 13 -13 14 0 4 8 -6 56 -20 105 -31z m212 -88
c-3 -3 -12 -4 -19 -1 -8 3 -5 6 6 6 11 1 17 -2 13 -5z m-187 -105 c115 -56
196 -89 360 -145 85 -30 111 -41 80 -37 -137 18 -447 141 -525 208 -37 32 -34
31 85 -26z m-938 -46 c-6 -10 -23 -44 -40 -77 -29 -58 -104 -168 -110 -162 -2
3 101 191 135 244 17 27 29 23 15 -5z"/>
<path d="M10492 8503 c-15 -48 -8 -55 8 -8 7 20 10 38 8 41 -3 2 -10 -13 -16
-33z"/>
<path d="M10438 8342 c-20 -59 -49 -141 -64 -182 -14 -41 -57 -165 -95 -275
-38 -110 -85 -245 -104 -300 -20 -55 -49 -140 -65 -190 -15 -49 -48 -151 -73
-225 -63 -189 -320 -977 -352 -1080 -15 -47 -29 -92 -32 -100 -8 -18 -7 -15
-22 -70 -7 -25 -26 -85 -43 -133 -16 -49 -28 -91 -26 -93 3 -2 34 83 70 189
36 105 112 325 168 487 56 162 143 419 195 570 51 151 95 282 98 290 20 55
158 479 176 540 13 41 25 82 28 90 4 8 7 18 8 23 2 4 3 8 5 10 1 1 3 9 5 17 1
8 15 56 31 105 15 50 28 92 29 95 0 3 6 19 12 35 22 57 95 296 91 300 -2 2
-20 -44 -40 -103z"/>
<path d="M9412 5398 c-31 -40 -76 -161 -87 -237 -6 -39 -5 -43 9 -32 20 17 73
146 80 196 4 23 8 51 11 63 4 25 2 27 -13 10z"/>
<path d="M7245 8746 c-57 -31 -299 -170 -375 -215 -19 -11 -50 -28 -67 -37
l-33 -16 0 -99 c0 -55 2 -99 4 -99 7 0 519 299 529 309 4 4 6 49 5 99 l-3 91
-60 -33z"/>
<path d="M4357 8293 c-790 -550 -829 -577 -927 -644 -52 -36 -189 -132 -305
-212 l-210 -145 -3 234 -2 234 -453 -2 -452 -3 0 -489 0 -490 -51 -32 c-29
-18 -66 -41 -82 -51 -17 -10 -138 -84 -269 -164 -131 -81 -380 -233 -553 -339
-173 -106 -340 -208 -370 -227 -30 -19 -176 -109 -325 -199 -148 -91 -275
-171 -282 -177 -9 -9 112 -12 515 -12 l527 0 1 -1078 c0 -767 3 -1080 11
-1085 9 -6 96 -7 161 -3 9 1 12 243 12 1176 l0 1175 -296 2 -296 3 178 109
c99 59 195 118 214 131 19 13 199 123 400 245 201 123 381 233 400 245 19 13
92 57 163 100 l127 77 0 452 0 452 262 -2 c145 0 266 -2 269 -3 3 0 6 -139 5
-307 -1 -168 1 -310 4 -314 3 -5 51 24 107 63 93 66 489 341 687 478 45 30
245 169 446 309 201 139 394 274 430 299 66 45 231 160 352 244 l67 47 303
-202 c167 -110 380 -251 473 -313 94 -61 431 -285 750 -496 319 -212 585 -388
590 -391 7 -5 11 151 10 488 0 272 -2 494 -5 494 -3 0 -42 -23 -85 -50 l-80
-50 -5 -275 -5 -275 -335 222 c-184 122 -622 412 -973 645 -351 233 -639 423
-641 423 -1 0 -208 -143 -459 -317z"/>
<path d="M7225 8429 c-38 -23 -88 -51 -110 -63 -22 -13 -109 -62 -192 -110
l-153 -88 0 -99 0 -100 48 28 c26 15 64 37 84 50 21 13 39 23 42 23 2 0 44 24
93 54 49 29 109 64 133 78 25 14 66 38 93 53 l47 27 0 94 c0 52 -3 94 -7 94
-5 0 -39 -19 -78 -41z"/>
<path d="M11543 7670 c-84 -18 -180 -94 -215 -169 -99 -217 71 -462 303 -437
191 20 318 205 265 387 -44 152 -203 251 -353 219z m186 -55 c50 -25 99 -73
128 -128 27 -50 25 -189 -4 -243 -28 -53 -74 -99 -127 -127 -63 -33 -183 -31
-252 5 -145 76 -192 260 -102 398 77 117 232 159 357 95z"/>
<path d="M11543 7600 c-24 -10 -29 -26 -14 -49 6 -9 14 -10 27 -4 53 27 169 9
216 -34 10 -9 21 -14 24 -11 8 9 -46 57 -88 79 -43 22 -134 33 -165 19z"/>
<path d="M11355 7348 c16 -130 102 -215 228 -225 76 -6 146 20 198 73 35 37
33 48 -4 13 -70 -66 -179 -80 -273 -34 -83 41 -129 107 -136 199 -1 14 -6 26
-11 26 -5 0 -5 -24 -2 -52z"/>
<path d="M11960 7149 c-114 -46 -127 -203 -23 -269 72 -46 155 -28 205 43 30
42 32 130 3 169 -39 54 -125 81 -185 57z m136 -30 c42 -26 61 -74 56 -146 -1
-13 -20 -41 -42 -63 -35 -35 -45 -40 -87 -40 -116 0 -183 117 -120 211 45 67
121 82 193 38z"/>
<path d="M11983 7124 c-29 -13 -10 -24 40 -24 29 0 58 -5 65 -12 6 -6 14 -9
18 -6 17 18 -93 55 -123 42z"/>
<path d="M11900 6963 c0 -15 30 -53 51 -64 29 -15 59 -19 59 -8 0 5 -9 9 -20
9 -10 0 -35 16 -55 35 -19 20 -35 32 -35 28z"/>
<path d="M12058 6907 c-21 -6 -38 -14 -38 -19 0 -4 2 -8 5 -8 12 0 75 29 75
34 0 4 -1 5 -2 5 -2 -1 -20 -6 -40 -12z"/>
<path d="M11565 6919 c-17 -5 -49 -24 -72 -43 -163 -140 -71 -398 142 -399 33
-1 67 1 75 4 39 11 102 64 127 107 51 85 33 212 -39 279 -57 53 -155 75 -233
52z m178 -36 c48 -28 95 -96 103 -148 21 -140 -102 -261 -241 -239 -167 26
-232 241 -107 357 61 58 173 72 245 30z"/>
<path d="M11588 6873 c-14 -3 -16 -9 -8 -23 8 -15 16 -17 45 -10 40 9 85 1
135 -25 l35 -18 -20 23 c-43 48 -122 70 -187 53z"/>
<path d="M11450 6703 c0 -63 46 -140 100 -168 74 -38 199 -12 231 48 10 17 7
16 -22 -5 -19 -14 -47 -30 -64 -35 -96 -32 -216 45 -232 149 -7 44 -13 49 -13
11z"/>
<path d="M11121 6619 c-44 -17 -83 -77 -86 -132 -5 -73 40 -134 112 -152 81
-20 143 9 175 82 35 79 7 162 -66 197 -38 18 -98 20 -135 5z m129 -17 c64 -32
91 -109 61 -178 -62 -139 -261 -95 -263 57 -1 100 109 166 202 121z"/>
<path d="M11151 6591 c-18 -12 1 -23 31 -17 13 2 40 -2 61 -9 46 -16 47 -11 5
15 -35 21 -74 25 -97 11z"/>
<path d="M11474 6296 c-34 -15 -72 -58 -79 -90 -18 -75 -9 -108 38 -154 97
-92 242 -38 254 95 6 65 -20 111 -77 141 -50 25 -91 27 -136 8z m134 -20 c38
-19 62 -58 66 -103 7 -79 -42 -142 -117 -150 -90 -10 -157 51 -153 138 5 108
107 165 204 115z"/>
<path d="M11507 6274 c-16 -16 -5 -22 37 -22 24 0 54 -5 65 -12 29 -15 26 -4
-4 16 -28 18 -87 29 -98 18z"/>
<path d="M11031 6162 c-48 -24 -73 -62 -79 -120 -16 -166 206 -229 284 -80 8
15 14 49 14 77 0 39 -6 56 -26 81 -51 60 -126 77 -193 42z m122 -6 c52 -22 79
-58 82 -113 4 -54 -12 -91 -51 -122 -56 -44 -142 -35 -188 20 -93 110 25 272
157 215z"/>
<path d="M11060 6134 c0 -12 8 -15 37 -11 22 3 50 -1 68 -9 l30 -15 -30 25
c-36 31 -105 37 -105 10z"/>
<path d="M10983 5991 c24 -67 86 -97 159 -77 15 5 32 14 39 22 8 10 3 9 -21
-2 -64 -33 -128 -7 -177 72 -9 15 -9 11 0 -15z"/>
<path d="M6517 5932 c-10 -2 -25 -21 -34 -43 -18 -45 -56 -79 -88 -79 -13 0
-54 14 -92 31 -147 67 -256 91 -396 88 -225 -5 -422 -81 -590 -229 -116 -102
-222 -285 -267 -460 -47 -180 -42 -402 12 -565 96 -291 310 -497 588 -567 92
-23 299 -31 395 -15 211 34 395 161 532 364 50 75 51 78 31 91 -11 8 -23 10
-27 6 -4 -5 -27 -34 -51 -64 -133 -168 -273 -261 -432 -286 -81 -12 -211 -6
-291 15 -275 72 -446 288 -482 611 -8 71 -9 268 -1 315 2 17 8 50 11 75 4 25
9 54 12 65 2 11 7 34 10 50 9 51 69 191 106 247 47 70 99 122 164 164 166 108
412 119 600 27 119 -58 238 -210 293 -372 21 -61 28 -71 48 -71 21 0 23 4 18
38 -4 32 -12 142 -21 287 -12 207 -18 271 -24 276 -3 3 -14 4 -24 1z"/>
<path d="M3278 5892 l-268 -2 0 -25 c0 -24 3 -25 60 -25 63 0 134 -25 163 -58
9 -10 20 -36 25 -58 14 -63 12 -1356 -3 -1426 -18 -91 -74 -128 -192 -128 -50
0 -53 -2 -53 -25 l0 -25 385 0 385 0 0 24 c0 22 -5 24 -67 28 -83 6 -146 36
-170 81 -15 28 -17 72 -20 372 -1 187 2 342 7 345 12 7 808 5 816 -3 8 -7 7
-610 -1 -647 -2 -14 -7 -37 -10 -51 -8 -34 -39 -63 -90 -85 -22 -9 -41 -16
-42 -15 -2 0 -27 1 -55 1 -50 0 -53 -2 -53 -25 l0 -25 381 0 382 0 4 25 c5 24
3 25 -48 25 -30 0 -55 -1 -56 -1 -2 -1 -21 6 -43 15 -61 26 -93 62 -101 115
-9 62 -8 1378 1 1421 4 19 14 44 22 56 21 33 103 64 166 64 46 0 55 3 60 20 3
11 2 22 -2 24 -10 6 -102 8 -458 7 -291 -1 -311 -2 -308 -18 2 -10 4 -21 4
-25 1 -5 27 -8 59 -8 42 0 72 -7 108 -25 58 -29 72 -48 80 -112 4 -37 8 -550
5 -620 -1 -10 -91 -13 -415 -13 l-415 0 2 328 c2 308 3 329 22 362 28 49 95
80 173 81 58 1 62 3 62 25 0 23 -3 24 -67 25 -38 0 -90 1 -118 2 -27 1 -170 1
-317 -1z"/>
<path d="M11167 5824 c-1 -1 -139 -4 -307 -8 -308 -6 -341 -8 -530 -26 -243
-25 -360 -80 -389 -185 -20 -73 23 -164 87 -181 28 -8 28 -15 -1 -62 -144
-232 -117 -472 65 -574 40 -23 42 -30 54 -138 3 -36 8 -72 9 -80 2 -8 6 -44
10 -80 4 -36 9 -76 11 -90 1 -14 6 -52 10 -85 3 -33 8 -68 9 -77 2 -9 7 -48
10 -85 4 -37 9 -76 11 -87 2 -10 6 -44 10 -75 3 -31 8 -69 10 -86 2 -16 6 -55
10 -85 3 -30 7 -66 9 -80 2 -14 7 -52 11 -85 3 -33 12 -72 20 -86 40 -78 253
-174 459 -204 22 -4 51 -8 65 -11 144 -26 667 -26 795 0 11 2 40 7 65 11 68
11 75 13 141 29 90 23 203 73 258 114 70 52 72 56 86 182 7 68 12 103 24 205
6 44 13 100 15 125 5 43 10 80 21 170 3 22 7 58 10 80 8 65 13 104 40 330 14
118 27 231 30 251 3 20 7 54 10 75 9 81 16 141 26 219 14 105 16 118 24 197 7
65 8 68 43 85 49 25 74 62 80 121 12 131 -93 203 -348 237 -23 3 -74 8 -205
20 -27 3 -176 7 -330 11 -154 3 -313 6 -353 7 -41 1 -74 1 -75 1z m438 -78
c149 -4 290 -9 315 -11 248 -22 332 -35 370 -55 40 -21 37 -78 -7 -139 -29
-40 -90 -91 -109 -91 -6 0 -21 17 -31 38 -28 53 -53 50 -143 -13 -80 -56 -66
-52 -245 -70 -311 -30 -934 -21 -1288 19 -23 3 -69 8 -102 11 -33 4 -87 10
-120 15 -33 5 -80 12 -104 15 -66 10 -119 34 -127 58 -34 104 55 165 281 192
28 3 64 8 80 11 49 7 165 12 430 20 138 4 251 7 252 8 3 2 287 -2 548 -8z
m455 -310 c0 -2 -8 -10 -17 -17 -16 -13 -17 -12 -4 4 13 16 21 21 21 13z
m-1745 -75 c141 -28 282 -50 350 -56 17 -1 55 -5 85 -8 83 -10 198 -18 286
-22 101 -5 547 -5 597 -1 25 3 37 0 34 -8 -5 -18 -311 -167 -437 -213 -179
-65 -318 -103 -430 -118 -19 -2 -64 -9 -100 -14 -36 -5 -135 -8 -220 -6 -125
3 -168 7 -223 25 -76 24 -80 30 -91 120 -10 94 -16 142 -26 218 -14 106 -13
121 8 116 9 -2 85 -17 167 -33z m1685 26 c0 -2 -10 -12 -22 -23 l-23 -19 19
23 c18 21 26 27 26 19z m-51 -50 c-2 -1 -24 -19 -49 -38 -120 -96 -365 -239
-520 -304 -36 -15 -78 -33 -95 -40 -61 -26 -295 -98 -355 -110 -8 -2 -33 -8
-55 -13 -164 -44 -496 -59 -633 -29 -241 53 -335 183 -277 385 10 34 21 65 25
67 4 3 -1 -23 -11 -57 -56 -179 19 -304 216 -360 68 -19 105 -22 245 -23 168
0 220 4 365 30 126 22 402 100 480 135 11 5 54 23 95 40 172 73 376 187 506
283 32 24 61 43 63 41 2 -2 2 -5 0 -7z m-1938 -60 c-10 -9 -11 -8 -5 6 3 10 9
15 12 12 3 -3 0 -11 -7 -18z m44 -34 c-4 -10 -8 -49 -10 -88 -5 -85 15 -137
70 -182 33 -27 123 -65 165 -69 8 -1 33 -5 55 -8 46 -8 250 -9 310 -1 22 2 63
8 90 11 28 4 57 8 65 9 8 1 38 5 65 8 l50 7 -55 -14 c-30 -8 -73 -17 -94 -20
-21 -4 -48 -8 -60 -11 -61 -14 -92 -17 -211 -20 -205 -7 -332 25 -409 103 -41
41 -67 115 -61 174 5 46 24 118 31 118 4 0 3 -8 -1 -17z m2052 -90 c-4 -32 -8
-67 -11 -78 -2 -11 -7 -42 -10 -70 -4 -27 -13 -90 -21 -140 -7 -49 -17 -110
-20 -135 -3 -25 -8 -56 -10 -70 -8 -49 -37 -245 -41 -275 -2 -16 -6 -48 -10
-70 -4 -22 -8 -51 -9 -65 -2 -23 -12 -85 -21 -134 -2 -10 -6 -44 -9 -75 -4
-31 -8 -63 -10 -71 -2 -8 -7 -37 -10 -65 -4 -27 -8 -57 -10 -65 -2 -8 -7 -37
-10 -65 -3 -27 -8 -61 -10 -75 -3 -14 -7 -43 -11 -65 -3 -22 -7 -47 -10 -56
-7 -26 -245 -84 -429 -105 -33 -4 -73 -8 -90 -10 -52 -6 -388 -6 -440 0 -161
19 -293 46 -400 81 -18 6 -18 5 -2 -5 23 -15 186 -67 233 -74 20 -4 40 -8 44
-11 4 -3 25 -7 46 -10 77 -11 119 -17 139 -22 11 -2 85 -6 165 -10 80 -3 147
-7 150 -10 10 -9 -299 1 -400 13 -177 21 -207 27 -342 70 -68 22 -186 87 -201
111 -3 4 -8 33 -11 63 -4 30 -9 71 -11 90 -3 19 -7 58 -10 85 -9 81 -36 298
-40 325 -2 14 -7 54 -10 90 -4 36 -8 72 -10 80 -1 8 -6 40 -9 70 -4 30 -8 69
-10 85 -20 160 -28 246 -25 249 2 2 54 -6 114 -19 162 -34 252 -43 425 -40
167 3 195 6 340 37 311 65 600 196 902 410 53 37 100 73 103 78 14 22 18 7 12
-47z m-760 -1749 c-3 -3 -12 -4 -19 -1 -8 3 -5 6 6 6 11 1 17 -2 13 -5z"/>
<path d="M10759 5716 c-2 -2 -67 -7 -144 -10 -188 -9 -234 -13 -392 -38 -70
-10 -101 -27 -89 -46 5 -8 32 -16 96 -28 43 -8 154 -20 255 -29 305 -26 1133
-26 1445 0 234 19 365 44 357 68 -8 25 -123 47 -322 62 -33 3 -87 8 -120 11
-66 6 -1080 16 -1086 10z m786 -30 c181 -6 240 -10 330 -21 22 -2 72 -7 110
-11 39 -3 77 -10 85 -15 11 -7 8 -8 -10 -4 -67 13 -661 33 -1004 34 -115 1
-207 3 -205 6 3 2 72 7 154 11 83 3 151 7 152 8 3 2 195 -2 388 -8z"/>
<path d="M5482 3208 l3 -132 93 0 c52 -1 98 2 104 5 8 5 14 166 9 247 -1 9
-29 12 -106 12 l-106 0 3 -132z"/>
<path d="M7752 2458 l3 -882 102 -1 c62 0 103 4 104 10 1 13 1 1726 0 1743 -1
9 -29 12 -106 12 l-105 0 2 -882z"/>
<path d="M655 3295 c-94 -14 -140 -28 -215 -65 -160 -80 -253 -243 -244 -428
8 -163 78 -279 214 -351 55 -29 187 -74 245 -84 17 -3 50 -10 75 -15 25 -6 61
-13 81 -16 20 -3 48 -10 63 -15 14 -6 26 -9 26 -6 0 2 27 -7 60 -20 138 -54
190 -120 195 -248 3 -81 -6 -114 -47 -174 -42 -62 -137 -113 -240 -128 -47 -8
-195 -8 -243 -1 -110 16 -303 81 -379 127 -17 10 -34 19 -38 19 -5 0 -8 -52
-8 -115 l0 -115 28 -11 c66 -25 205 -62 297 -79 131 -23 366 -21 475 5 252 60
382 201 397 430 16 251 -95 417 -334 500 -64 23 -217 59 -293 71 -67 10 -182
44 -231 69 -31 16 -59 41 -76 67 -25 37 -28 50 -28 127 0 64 5 95 19 120 100
185 443 212 789 62 27 -12 50 -21 51 -21 1 0 3 49 4 110 l2 110 -58 17 c-76
22 -63 19 -187 43 -133 25 -291 31 -400 15z"/>
<path d="M6710 3294 c-313 -47 -544 -252 -630 -559 -34 -120 -47 -380 -25
-500 62 -349 259 -573 575 -657 87 -23 310 -32 405 -17 126 20 342 104 378
147 8 10 12 54 12 129 0 62 -1 113 -3 113 -2 0 -13 -9 -25 -21 -35 -32 -127
-91 -190 -122 -177 -85 -445 -88 -608 -7 -84 42 -141 90 -188 158 -88 131
-124 271 -122 482 1 139 10 200 47 308 59 176 182 295 359 348 85 26 306 26
390 0 95 -29 194 -78 268 -134 37 -29 69 -52 70 -52 6 0 -1 228 -6 238 -21 32
-200 110 -317 137 -96 21 -281 26 -390 9z"/>
<path d="M2167 2873 c-2 -1 -21 -5 -42 -9 -208 -33 -390 -212 -452 -444 -24
-90 -24 -330 0 -417 42 -157 153 -302 282 -370 121 -63 192 -78 370 -77 169 1
220 9 383 61 l82 27 0 98 c0 54 -2 98 -5 98 -3 0 -23 -9 -44 -19 -102 -53
-267 -92 -391 -93 -263 -2 -418 112 -467 346 -7 38 -12 75 -9 81 3 10 114 13
473 13 257 0 474 1 481 1 18 1 14 191 -6 281 -47 216 -201 374 -406 416 -58
13 -239 18 -249 7z m280 -209 c56 -27 111 -83 139 -142 21 -46 44 -129 44
-164 l0 -28 -376 0 -376 0 6 44 c24 177 149 301 326 323 85 11 172 -1 237 -33z"/>
<path d="M3650 2863 c-111 -28 -193 -82 -260 -172 l-26 -33 1 96 1 96 -106 0
-107 0 0 -635 0 -635 106 0 107 0 -1 353 c0 459 13 546 99 644 48 55 95 85
160 103 71 20 185 15 251 -10 15 -6 27 -10 29 -10 1 0 2 46 2 101 -1 99 -2
102 -26 111 -34 13 -165 8 -230 -9z"/>
<path d="M8771 2864 c-217 -46 -387 -213 -448 -444 -25 -93 -24 -341 1 -425
67 -222 239 -382 461 -428 83 -18 324 -16 400 3 28 6 61 14 74 16 13 3 60 17
104 32 l81 27 -2 95 c-2 52 -4 95 -6 97 -1 2 -32 -10 -69 -27 -119 -54 -252
-81 -392 -81 -246 2 -397 121 -440 347 -8 42 -13 79 -10 84 2 4 220 7 482 7
l478 0 1 109 c0 61 -6 138 -14 174 -46 211 -196 368 -393 414 -78 18 -223 18
-308 0z m317 -195 c110 -54 168 -144 187 -291 l7 -48 -377 0 -378 0 7 43 c20
132 92 235 202 288 108 51 255 54 352 8z"/>
<path d="M10076 2863 c-67 -12 -236 -60 -246 -69 -2 -3 -5 -47 -5 -98 -1 -97
2 -103 40 -76 20 14 131 50 205 65 89 19 226 21 293 6 94 -22 172 -74 204
-136 20 -37 39 -111 38 -145 l0 -25 -185 -1 c-194 -1 -267 -6 -341 -23 -222
-51 -336 -176 -345 -381 -8 -182 66 -316 212 -385 76 -36 128 -45 244 -41 169
5 282 54 370 162 19 24 38 43 41 43 3 1 5 -32 5 -71 -3 -115 -9 -108 108 -105
l101 2 -1 425 c0 402 -1 429 -22 508 -64 246 -240 363 -541 360 -58 -1 -137
-8 -175 -15z m527 -720 c-11 -214 -121 -368 -291 -407 -147 -33 -291 15 -342
115 -42 81 -30 213 25 272 65 68 171 92 431 96 l182 2 -5 -78z"/>
<path d="M11733 2864 c-102 -27 -198 -90 -254 -167 -16 -22 -29 -38 -30 -36
-1 2 -2 45 -3 94 l-1 90 -105 0 -105 0 -1 -632 -1 -633 107 0 106 0 0 393 c1
349 3 401 19 464 30 117 121 216 225 244 155 42 301 -1 358 -106 46 -85 47
-102 52 -967 l0 -28 105 0 106 0 -1 439 c-1 256 -6 456 -12 482 -5 24 -12 55
-14 69 -10 51 -68 155 -111 197 -43 44 -118 85 -178 99 -60 13 -210 12 -262
-2z"/>
<path d="M3989 2773 c39 -104 238 -630 254 -668 6 -16 12 -32 13 -35 0 -3 4
-12 7 -20 6 -13 102 -265 159 -417 l19 -53 144 0 143 0 17 43 c9 23 61 159
115 302 83 221 324 852 345 908 7 16 -2 17 -107 17 l-114 0 -16 -47 c-20 -60
-378 -1006 -382 -1010 -2 -3 -228 591 -370 974 l-31 83 -112 0 -112 0 28 -77z"/>
<path d="M5480 2215 l0 -635 105 0 105 0 1 48 c0 26 1 310 1 632 l0 585 -106
3 -106 3 0 -636z"/>
</g>
</svg>
